<svg width="24" height="20" viewBox="0 0 24 20" fill="none" xmlns="http://www.w3.org/2000/svg">
<path d="M22 7V8.528C21.524 9.218 18.185 10.499 12.23 10.499C5.991 10.499 2.494 9.141 2 8.411V7H22ZM24 5H0V8.491C0 11.148 6.154 12.5 12.23 12.5C18.152 12.5 24 11.216 24 8.605V5ZM22 13.074V18H2V12.999C1.177 12.662 0.522 12.288 0 11.903V20H24V12.051C23.417 12.453 22.738 12.792 22 13.074ZM14 15.032C14 16.119 13.104 17 12 17C10.896 17 10 16.119 10 15.032V14H14V15.032ZM9 0C7.896 0 7 0.896 7 2V4H9V2.5C9 2.224 9.224 2 9.5 2H14.5C14.776 2 15 2.224 15 2.5V4H17V2C17 0.896 16.104 0 15 0H9Z" fill="#2a5c8d"/>
</svg>
