<svg width="24" height="24" viewBox="0 0 24 24" fill="current" xmlns="http://www.w3.org/2000/svg">
<path fill-rule="evenodd" clip-rule="evenodd" d="M0 22H12V24H0V22ZM11 21H1C1 19.895 1.895 19 3 19H9C10.105 19 11 19.895 11 21ZM17.369 8.161L15.123 10.358C15.123 10.358 21.414 15.899 23.295 17.502C23.77 17.907 24 18.431 24 18.948C24 19.963 23.112 20.834 22.05 20.767C21.53 20.735 21.069 20.464 20.729 20.07C19.11 18.195 13.659 11.821 13.659 11.821L11.414 14.017L5.557 8.161L11.514 2.304L17.369 8.161ZM5.07 9.087C4.875 8.894 4.612 8.785 4.337 8.785C4.063 8.785 3.8 8.894 3.605 9.087C3.412 9.282 3.302 9.545 3.302 9.82C3.302 10.094 3.412 10.357 3.605 10.552L9.118 16.063C9.312 16.258 9.575 16.367 9.85 16.367C10.125 16.367 10.388 16.258 10.582 16.063C10.776 15.87 10.885 15.606 10.885 15.331C10.885 15.057 10.776 14.794 10.582 14.6L5.07 9.087ZM13.854 0.303C13.659 0.109 13.396 0 13.122 0C12.546 0 12.087 0.467 12.087 1.035C12.087 1.31 12.195 1.574 12.39 1.767L17.903 7.28C18.097 7.473 18.359 7.583 18.634 7.583C19.206 7.583 19.67 7.119 19.67 6.548C19.67 6.273 19.561 6.009 19.366 5.816L13.854 0.303Z" fill="#a0c5dd"/>
</svg>
