<svg width="24" height="24" viewBox="0 0 24 24" fill="none" xmlns="http://www.w3.org/2000/svg">
<path d="M12 0C5.373 0 0 5.373 0 12C0 18.627 5.373 24 12 24C18.627 24 24 18.627 24 12C24 5.373 18.627 0 12 0ZM12 18.25C11.31 18.25 10.75 17.69 10.75 17C10.75 16.31 11.31 15.75 12 15.75C12.691 15.75 13.25 16.31 13.25 17C13.25 17.69 12.691 18.25 12 18.25ZM13.961 12.322C13.057 13.297 13.014 13.836 13.026 14.5H11.021C11.014 13.025 11.041 12.375 12.452 11.032C13.025 10.488 13.477 10.057 13.414 9.211C13.356 8.406 12.684 7.985 12.049 7.985C11.34 7.985 10.511 8.512 10.511 9.998H8.501C8.501 7.598 9.91 6.048 12.091 6.048C13.127 6.048 14.033 6.387 14.641 7.003C15.211 7.581 15.506 8.375 15.495 9.301C15.479 10.684 14.638 11.592 13.961 12.322Z" fill="black"/>
</svg>
