<svg width="24" height="24" viewBox="0 0 24 24" fill="none" xmlns="http://www.w3.org/2000/svg">
<path d="M12 0C5.373 0 0 5.373 0 12C0 18.627 5.373 24 12 24C18.627 24 24 18.627 24 12C24 5.373 18.627 0 12 0ZM11.999 5.75C12.689 5.75 13.25 6.31 13.25 7C13.25 7.69 12.689 8.25 11.999 8.25C11.309 8.25 10.75 7.69 10.75 7C10.75 6.31 11.309 5.75 11.999 5.75ZM14 18H10V17C10.484 16.821 11 16.799 11 16.265V11.798C11 11.264 10.484 11.18 10 11.001V10.001H13V16.266C13 16.801 13.517 16.824 14 17.001V18Z" fill="#CACCCF"/>
</svg>
