<svg width="24" height="24" viewBox="0 0 24 24" fill="none" xmlns="http://www.w3.org/2000/svg">
<path d="M18.1132 13.333V0H24V13.333L21.1581 10.649L18.1132 13.333Z" fill="#CACCCF"/>
<path fill-rule="evenodd" clip-rule="evenodd" d="M10.5706 0.370976C10.1061 0.821517 10.1021 1.55649 10.5617 2.01209L17.2744 8.66705L17.2744 5.37237L12.2415 0.38032C11.7826 -0.0749225 11.0346 -0.0791049 10.5706 0.370976ZM13.7068 12.1915L16.3111 9.70003L9.52208 3.05789L2.61475 9.70003L9.40613 16.341L12.0093 13.8507C12.0093 13.8507 18.3299 21.0791 20.2072 23.2054C20.6014 23.6523 21.136 23.9596 21.7389 23.9959C22.9703 24.0719 24 23.0841 24 21.933C24 21.3467 23.7333 20.7525 23.1825 20.2932C21.0014 18.4753 13.7068 12.1915 13.7068 12.1915ZM1.20012 10.4077C1.51899 10.4077 1.82394 10.5313 2.05005 10.7502L8.4414 17.0022C8.66634 17.2222 8.79273 17.5205 8.79273 17.8312C8.79273 18.143 8.66634 18.4424 8.4414 18.6613C8.21645 18.8824 7.91149 19.0061 7.59262 19.0061C7.27375 19.0061 6.96879 18.8824 6.74384 18.6613L0.351338 12.4115C0.127549 12.1904 0 11.8922 0 11.5814C0 11.2696 0.127549 10.9713 0.351338 10.7502C0.577447 10.5313 0.882404 10.4077 1.20012 10.4077Z" fill="#CACCCF"/>
</svg>
