<svg width="22" height="24" viewBox="0 0 22 24" fill="none" xmlns="http://www.w3.org/2000/svg">
<path d="M5 12H15V13H5V12ZM12.816 9H5V10H14.047C13.597 9.717 13.184 9.382 12.816 9ZM5 7H11.5C11.366 6.68 11.263 6.344 11.181 6H5V7ZM18 10.975V13.543C18 17.65 12 16 12 16C12 16 13.518 22 9.362 22H2V2H11.5C11.812 1.251 12.263 0.576 12.816 0H0V24H10.189C13.352 24 20 16.777 20 14.386V10.5C19.377 10.76 18.703 10.921 18 10.975ZM22 4.5C22 6.985 19.985 9 17.5 9C15.015 9 13 6.985 13 4.5C13 2.015 15.015 0 17.5 0C19.985 0 22 2.015 22 4.5ZM19.844 3.618L19.148 2.922L17.032 5.091L16.04 4.15L15.344 4.847L17.032 6.484L19.844 3.618Z" fill="black"/>
</svg>
